<?xml version="1.0" encoding="UTF-8"?>
<svg id="Layer_1" data-name="Layer 1" xmlns="http://www.w3.org/2000/svg" xmlns:xlink="http://www.w3.org/1999/xlink" viewBox="0 0 1080 1080">
  <defs>
    <style>
      .cls-1 {
        font-size: 50px;
      }

      .cls-1, .cls-2, .cls-3 {
        font-family: Bahnschrift-Light, Bahnschrift;
        font-variation-settings: 'wght' 300, 'wdth' 100;
        font-weight: 300;
      }

      .cls-1, .cls-4 {
        fill: #000;
      }

      .cls-5 {
        letter-spacing: .08em;
      }

      .cls-2, .cls-3 {
        fill: #0092e6;
      }

      .cls-2, .cls-6 {
        letter-spacing: 0em;
      }

      .cls-7 {
        fill: url(#linear-gradient);
      }

      .cls-7, .cls-8, .cls-9, .cls-10, .cls-11, .cls-12, .cls-13 {
        stroke-width: 0px;
      }

      .cls-4 {
        letter-spacing: 0em;
      }

      .cls-4, .cls-14, .cls-15, .cls-6, .cls-16 {
        font-family: Bahnschrift-Bold, Bahnschrift;
        font-variation-settings: 'wght' 700, 'wdth' 100;
        font-weight: 700;
      }

      .cls-17 {
        font-size: 149.45px;
      }

      .cls-8 {
        fill: url(#linear-gradient-6);
      }

      .cls-14 {
        letter-spacing: 0em;
      }

      .cls-14, .cls-15, .cls-6, .cls-16 {
        fill: #0033a5;
      }

      .cls-9 {
        fill: url(#linear-gradient-5);
      }

      .cls-18 {
        letter-spacing: .1em;
      }

      .cls-10 {
        fill: url(#linear-gradient-2);
      }

      .cls-11 {
        fill: url(#linear-gradient-3);
      }

      .cls-19 {
        letter-spacing: .1em;
      }

      .cls-16 {
        letter-spacing: .02em;
      }

      .cls-12 {
        fill: #fff;
      }

      .cls-20 {
        letter-spacing: .1em;
      }

      .cls-21 {
        letter-spacing: .09em;
      }

      .cls-13 {
        fill: url(#linear-gradient-4);
      }
    </style>
    <linearGradient id="linear-gradient" x1="136.49" y1="367.79" x2="828.23" y2="367.79" gradientUnits="userSpaceOnUse">
      <stop offset="0" stop-color="#00a0f0"/>
      <stop offset="1" stop-color="#0031a4"/>
    </linearGradient>
    <linearGradient id="linear-gradient-2" x1="298.81" y1="405.09" x2="779.48" y2="405.09" xlink:href="#linear-gradient"/>
    <linearGradient id="linear-gradient-3" x1="356.55" y1="631.41" x2="409.45" y2="631.41" xlink:href="#linear-gradient"/>
    <linearGradient id="linear-gradient-4" x1="284.35" y1="241.51" x2="828.22" y2="241.51" xlink:href="#linear-gradient"/>
    <linearGradient id="linear-gradient-5" x1="658.89" y1="634.5" x2="727.47" y2="634.5" xlink:href="#linear-gradient"/>
    <linearGradient id="linear-gradient-6" x1="353.11" y1="634.5" x2="421.69" y2="634.5" xlink:href="#linear-gradient"/>
  </defs>
  <g>
    <path class="cls-7" d="M724.58,579.1h-387.08l-119.21-393.7h-67.34c-7.98,0-14.46-6.48-14.46-14.46s6.47-14.46,14.46-14.46h88.79l119.21,393.71h345.17l96-271.53c2.66-7.53,10.92-11.48,18.45-8.81,7.53,2.66,11.48,10.92,8.81,18.45l-102.82,290.81Z"/>
    <polygon class="cls-10" points="298.81 279.62 373.13 530.57 692.71 530.57 779.48 279.62 298.81 279.62"/>
    <path class="cls-11" d="M356.55,631.41c0,14.61,11.84,26.45,26.45,26.45s26.45-11.84,26.45-26.45-11.84-26.45-26.45-26.45-26.45,11.84-26.45,26.45Z"/>
    <path class="cls-13" d="M813.76,255.97H298.81c-7.98,0-14.46-6.47-14.46-14.46s6.48-14.46,14.46-14.46h514.95c7.98,0,14.46,6.47,14.46,14.46s-6.47,14.46-14.46,14.46Z"/>
    <path class="cls-9" d="M724.93,621.45c-1.7-3.97-4.09-7.43-7.19-10.37-3.09-2.94-6.72-5.23-10.87-6.87-4.15-1.64-8.72-2.46-13.69-2.46s-9.46.82-13.64,2.46c-4.18,1.64-7.82,3.93-10.91,6.87-3.09,2.94-5.49,6.4-7.19,10.37-1.7,3.97-2.55,8.32-2.55,13.05s.85,9.08,2.55,13.05c1.7,3.97,4.09,7.43,7.19,10.37,3.09,2.94,6.73,5.23,10.91,6.87,4.18,1.64,8.76,2.46,13.73,2.46s9.44-.82,13.6-2.46c4.15-1.64,7.78-3.91,10.87-6.82,3.09-2.91,5.49-6.37,7.19-10.37,1.7-4,2.55-8.37,2.55-13.1s-.85-9.08-2.55-13.05Z"/>
    <path class="cls-8" d="M419.14,621.45c-1.7-3.97-4.09-7.43-7.19-10.37-3.09-2.94-6.72-5.23-10.87-6.87-4.15-1.64-8.72-2.46-13.69-2.46s-9.46.82-13.64,2.46c-4.18,1.64-7.82,3.93-10.91,6.87-3.09,2.94-5.49,6.4-7.19,10.37-1.7,3.97-2.55,8.32-2.55,13.05s.85,9.08,2.55,13.05c1.7,3.97,4.09,7.43,7.19,10.37,3.09,2.94,6.73,5.23,10.91,6.87,4.18,1.64,8.76,2.46,13.73,2.46s9.44-.82,13.6-2.46c4.15-1.64,7.78-3.91,10.87-6.82,3.09-2.91,5.49-6.37,7.19-10.37,1.7-4,2.55-8.37,2.55-13.1s-.85-9.08-2.55-13.05Z"/>
  </g>
  <g>
    <text class="cls-17" transform="translate(64.58 806.04)"><tspan class="cls-6" x="0" y="0">M</tspan><tspan class="cls-15" x="115" y="0">AR</tspan><tspan class="cls-14" x="309.18" y="0">K</tspan><tspan class="cls-16" x="406.52" y="0">E</tspan><tspan class="cls-15" x="498.76" y="0">T</tspan><tspan class="cls-4" x="570.71" y="0"> </tspan><tspan class="cls-3" x="610.84" y="0">T</tspan><tspan class="cls-2" x="682.79" y="0">O</tspan><tspan class="cls-3" x="777.8" y="0">LL</tspan></text>
    <text class="cls-1" transform="translate(66.8 868.23)"><tspan class="cls-19" x="0" y="0">Alw</tspan><tspan class="cls-21" x="100.52" y="0">a</tspan><tspan class="cls-19" x="131.4" y="0">ys The Best </tspan><tspan class="cls-5" x="461.88" y="0">P</tspan><tspan class="cls-19" x="496.79" y="0">rice With </tspan><tspan class="cls-18" x="758.36" y="0">Q</tspan><tspan class="cls-20" x="795.98" y="0">uality</tspan></text>
  </g>
  <g>
    <polygon class="cls-12" points="400.26 495.78 400.26 314.41 444.92 314.41 518.45 419.53 591.98 314.41 678.03 314.41 678.03 357.44 613.22 357.44 518.99 493.05 442.74 386.3 442.74 495.78 400.26 495.78"/>
    <polygon class="cls-12" points="490.13 314.41 582.72 314.41 553.11 357.98 490.13 357.98 490.13 314.41"/>
    <polygon class="cls-12" points="613.4 371.42 613.4 495.78 571.46 495.78 571.46 431.15 613.4 371.42"/>
  </g>
</svg>